<mxfile host="65bd71144e">
    <diagram id="zCrGKFgxf9hNdtkvRF11" name="Page-1">
        <mxGraphModel dx="7460" dy="3200" grid="0" gridSize="10" guides="1" tooltips="1" connect="1" arrows="1" fold="1" page="1" pageScale="1" pageWidth="850" pageHeight="1100" background="#ffffff" math="0" shadow="0">
            <root>
                <mxCell id="0"/>
                <mxCell id="1" parent="0"/>
                <mxCell id="162" value="" style="shape=folder;fontStyle=1;tabWidth=184;tabHeight=31;tabPosition=left;html=1;boundedLbl=1;fontSize=16;fontColor=#000000;fillColor=none;strokeColor=#000000;" vertex="1" parent="1">
                    <mxGeometry x="-882" y="361" width="1548" height="693" as="geometry"/>
                </mxCell>
                <mxCell id="153" value="" style="shape=folder;fontStyle=1;tabWidth=285;tabHeight=48;tabPosition=left;html=1;boundedLbl=1;fillColor=none;strokeColor=#000000;" parent="1" vertex="1">
                    <mxGeometry x="-2180" y="-145" width="3302" height="2018" as="geometry"/>
                </mxCell>
                <mxCell id="157" value="" style="shape=folder;fontStyle=1;tabWidth=156;tabHeight=39;tabPosition=left;html=1;boundedLbl=1;fontSize=16;fontColor=#000000;fillColor=none;strokeColor=#000000;" vertex="1" parent="1">
                    <mxGeometry x="-1771" y="30" width="822" height="567" as="geometry"/>
                </mxCell>
                <mxCell id="168" value="" style="shape=folder;fontStyle=1;tabWidth=175;tabHeight=38;tabPosition=left;html=1;boundedLbl=1;strokeColor=#000000;fontSize=16;fontColor=#000000;fillColor=none;" vertex="1" parent="1">
                    <mxGeometry x="-2956" y="-49" width="679" height="1349" as="geometry"/>
                </mxCell>
                <mxCell id="6" value="Signup" style="swimlane;fontStyle=1;align=center;verticalAlign=top;childLayout=stackLayout;horizontal=1;startSize=26;horizontalStack=0;resizeParent=1;resizeParentMax=0;resizeLast=0;collapsible=1;marginBottom=0;labelBackgroundColor=none;labelBorderColor=none;fillStyle=auto;strokeColor=#000000;fontColor=#FFFFFF;fillColor=default;gradientColor=none;" parent="1" vertex="1">
                    <mxGeometry x="-1459" y="101" width="300" height="136" as="geometry"/>
                </mxCell>
                <mxCell id="151" value="&lt;span style=&quot;font-family: Helvetica; font-size: 12px; font-style: normal; font-variant-ligatures: normal; font-variant-caps: normal; font-weight: 400; letter-spacing: normal; orphans: 2; text-align: left; text-indent: 0px; text-transform: none; widows: 2; word-spacing: 0px; -webkit-text-stroke-width: 0px; text-decoration-thickness: initial; text-decoration-style: initial; text-decoration-color: initial; float: none; display: inline !important;&quot;&gt;- saveNewUser(customer: Customer) : void&lt;/span&gt;&lt;br style=&quot;border-color: rgb(0, 0, 0); padding: 0px; margin: 0px; font-family: Helvetica; font-size: 12px; font-style: normal; font-variant-ligatures: normal; font-variant-caps: normal; font-weight: 400; letter-spacing: normal; orphans: 2; text-align: left; text-indent: 0px; text-transform: none; widows: 2; word-spacing: 0px; -webkit-text-stroke-width: 0px; text-decoration-thickness: initial; text-decoration-style: initial; text-decoration-color: initial;&quot;&gt;&lt;span style=&quot;font-family: Helvetica; font-size: 12px; font-style: normal; font-variant-ligatures: normal; font-variant-caps: normal; font-weight: 400; letter-spacing: normal; orphans: 2; text-align: left; text-indent: 0px; text-transform: none; widows: 2; word-spacing: 0px; -webkit-text-stroke-width: 0px; text-decoration-thickness: initial; text-decoration-style: initial; text-decoration-color: initial; float: none; display: inline !important;&quot;&gt;+ register(cutomer: Customer&lt;/span&gt;&lt;span style=&quot;font-family: Helvetica; font-size: 12px; font-style: normal; font-variant-ligatures: normal; font-variant-caps: normal; font-weight: 400; letter-spacing: normal; orphans: 2; text-align: left; text-indent: 0px; text-transform: none; widows: 2; word-spacing: 0px; -webkit-text-stroke-width: 0px; text-decoration-thickness: initial; text-decoration-style: initial; text-decoration-color: initial; float: none; display: inline !important;&quot;&gt;): bool&lt;/span&gt;" style="text;whiteSpace=wrap;html=1;fontColor=#000000;" parent="6" vertex="1">
                    <mxGeometry y="26" width="300" height="55" as="geometry"/>
                </mxCell>
                <mxCell id="81" value="&lt;span style=&quot;font-family: Helvetica; font-size: 12px; font-style: normal; font-variant-ligatures: normal; font-variant-caps: normal; font-weight: 400; letter-spacing: normal; orphans: 2; text-align: left; text-indent: 0px; text-transform: none; widows: 2; word-spacing: 0px; -webkit-text-stroke-width: 0px; text-decoration-thickness: initial; text-decoration-style: initial; text-decoration-color: initial; float: none; display: inline !important;&quot;&gt;- saveNewUser(customer: Customer) : void&lt;/span&gt;&lt;br style=&quot;border-color: rgb(0, 0, 0); padding: 0px; margin: 0px; font-family: Helvetica; font-size: 12px; font-style: normal; font-variant-ligatures: normal; font-variant-caps: normal; font-weight: 400; letter-spacing: normal; orphans: 2; text-align: left; text-indent: 0px; text-transform: none; widows: 2; word-spacing: 0px; -webkit-text-stroke-width: 0px; text-decoration-thickness: initial; text-decoration-style: initial; text-decoration-color: initial;&quot;&gt;&lt;span style=&quot;font-family: Helvetica; font-size: 12px; font-style: normal; font-variant-ligatures: normal; font-variant-caps: normal; font-weight: 400; letter-spacing: normal; orphans: 2; text-align: left; text-indent: 0px; text-transform: none; widows: 2; word-spacing: 0px; -webkit-text-stroke-width: 0px; text-decoration-thickness: initial; text-decoration-style: initial; text-decoration-color: initial; float: none; display: inline !important;&quot;&gt;+ register(cutomer: Customer&lt;/span&gt;&lt;span style=&quot;font-family: Helvetica; font-size: 12px; font-style: normal; font-variant-ligatures: normal; font-variant-caps: normal; font-weight: 400; letter-spacing: normal; orphans: 2; text-align: left; text-indent: 0px; text-transform: none; widows: 2; word-spacing: 0px; -webkit-text-stroke-width: 0px; text-decoration-thickness: initial; text-decoration-style: initial; text-decoration-color: initial; float: none; display: inline !important;&quot;&gt;): bool&lt;/span&gt;" style="text;whiteSpace=wrap;html=1;fontColor=#000000;" parent="6" vertex="1">
                    <mxGeometry y="81" width="300" height="55" as="geometry"/>
                </mxCell>
                <mxCell id="8" value="Login" style="swimlane;fontStyle=1;align=center;verticalAlign=top;childLayout=stackLayout;horizontal=1;startSize=26;horizontalStack=0;resizeParent=1;resizeParentMax=0;resizeLast=0;collapsible=1;marginBottom=0;labelBackgroundColor=none;labelBorderColor=none;strokeColor=#000000;fontColor=#FFFFFF;fillColor=default;gradientColor=none;" parent="1" vertex="1">
                    <mxGeometry x="-1474" y="298" width="320" height="52" as="geometry"/>
                </mxCell>
                <mxCell id="H6hMEX80jcX9_PH4wcqr-27" value="&lt;font color=&quot;#000000&quot;&gt;login(email: string, password: string): Customer&lt;/font&gt;" style="text;html=1;align=center;verticalAlign=middle;resizable=0;points=[];autosize=1;strokeColor=none;fillColor=none;fontColor=#FFFFFF;" parent="8" vertex="1">
                    <mxGeometry y="26" width="320" height="26" as="geometry"/>
                </mxCell>
                <mxCell id="10" value="CustomerModel" style="swimlane;fontStyle=1;align=center;verticalAlign=top;childLayout=stackLayout;horizontal=1;startSize=26;horizontalStack=0;resizeParent=1;resizeParentMax=0;resizeLast=0;collapsible=1;marginBottom=0;strokeColor=#000000;fontColor=#FFFFFF;" parent="1" vertex="1">
                    <mxGeometry x="-2745" y="73" width="290" height="120" as="geometry"/>
                </mxCell>
                <mxCell id="11" value="- customers: Vector&lt;Customer&gt;" style="text;strokeColor=none;fillColor=none;align=left;verticalAlign=top;spacingLeft=4;spacingRight=4;overflow=hidden;rotatable=0;points=[[0,0.5],[1,0.5]];portConstraint=eastwest;fontColor=#000000;" parent="10" vertex="1">
                    <mxGeometry y="26" width="290" height="34" as="geometry"/>
                </mxCell>
                <mxCell id="12" value="+ create(customer: Customer): void&#10;+ read(ID: string): Customer&#10;+ delete(string ID): void" style="text;strokeColor=#181616;fillColor=none;align=left;verticalAlign=top;spacingLeft=4;spacingRight=4;overflow=hidden;rotatable=0;points=[[0,0.5],[1,0.5]];portConstraint=eastwest;fontColor=#000000;" parent="10" vertex="1">
                    <mxGeometry y="60" width="290" height="60" as="geometry"/>
                </mxCell>
                <mxCell id="13" value="MessageHistory" style="swimlane;fontStyle=1;align=center;verticalAlign=top;childLayout=stackLayout;horizontal=1;startSize=26;horizontalStack=0;resizeParent=1;resizeParentMax=0;resizeLast=0;collapsible=1;marginBottom=0;strokeColor=#000000;fontColor=#FFFFFF;" parent="1" vertex="1">
                    <mxGeometry x="-2748" y="1108" width="290" height="120" as="geometry"/>
                </mxCell>
                <mxCell id="14" value="- massages: Vector&lt;Massage&gt;" style="text;strokeColor=none;fillColor=none;align=left;verticalAlign=top;spacingLeft=4;spacingRight=4;overflow=hidden;rotatable=0;points=[[0,0.5],[1,0.5]];portConstraint=eastwest;fontColor=#000000;" parent="13" vertex="1">
                    <mxGeometry y="26" width="290" height="34" as="geometry"/>
                </mxCell>
                <mxCell id="15" value="+ create(message: Message): void&#10;+ read(ID: string): Massage&#10;+ delete(string ID): void" style="text;strokeColor=#181616;fillColor=none;align=left;verticalAlign=top;spacingLeft=4;spacingRight=4;overflow=hidden;rotatable=0;points=[[0,0.5],[1,0.5]];portConstraint=eastwest;fontColor=#000000;" parent="13" vertex="1">
                    <mxGeometry y="60" width="290" height="60" as="geometry"/>
                </mxCell>
                <mxCell id="16" value="Stock" style="swimlane;fontStyle=1;align=center;verticalAlign=top;childLayout=stackLayout;horizontal=1;startSize=26;horizontalStack=0;resizeParent=1;resizeParentMax=0;resizeLast=0;collapsible=1;marginBottom=0;strokeColor=#000000;fontColor=#FFFFFF;" parent="1" vertex="1">
                    <mxGeometry x="-2772" y="394" width="350" height="120" as="geometry"/>
                </mxCell>
                <mxCell id="17" value="+ items: Vector&lt;Product&gt;" style="text;strokeColor=none;fillColor=none;align=left;verticalAlign=top;spacingLeft=4;spacingRight=4;overflow=hidden;rotatable=0;points=[[0,0.5],[1,0.5]];portConstraint=eastwest;fontColor=#000000;" parent="16" vertex="1">
                    <mxGeometry y="26" width="350" height="34" as="geometry"/>
                </mxCell>
                <mxCell id="18" value="+ create(product :Product): void&#10;+ read(serialNum: string): Product&#10;+ delete(serialNum: String): void&#10;" style="text;strokeColor=#181616;fillColor=none;align=left;verticalAlign=top;spacingLeft=4;spacingRight=4;overflow=hidden;rotatable=0;points=[[0,0.5],[1,0.5]];portConstraint=eastwest;fontColor=#000000;" parent="16" vertex="1">
                    <mxGeometry y="60" width="350" height="60" as="geometry"/>
                </mxCell>
                <mxCell id="H6hMEX80jcX9_PH4wcqr-24" value="" style="endArrow=open;endFill=1;endSize=12;html=1;labelBackgroundColor=#FFFFFF;strokeColor=#000000;fontColor=#000000;dashed=1;entryX=0.493;entryY=1.074;entryDx=0;entryDy=0;entryPerimeter=0;" parent="1" target="12" edge="1">
                    <mxGeometry width="160" relative="1" as="geometry">
                        <mxPoint x="-1478" y="331" as="sourcePoint"/>
                        <mxPoint x="-1440" y="188" as="targetPoint"/>
                        <Array as="points">
                            <mxPoint x="-2602" y="326"/>
                            <mxPoint x="-2602" y="282"/>
                        </Array>
                    </mxGeometry>
                </mxCell>
                <mxCell id="H6hMEX80jcX9_PH4wcqr-26" value="use" style="text;html=1;align=center;verticalAlign=middle;resizable=0;points=[];autosize=1;strokeColor=none;fillColor=none;fontColor=#000000;" parent="1" vertex="1">
                    <mxGeometry x="-1975" y="298.5" width="40" height="30" as="geometry"/>
                </mxCell>
                <mxCell id="H6hMEX80jcX9_PH4wcqr-30" value="" style="endArrow=open;endFill=1;endSize=12;html=1;labelBackgroundColor=#FFFFFF;strokeColor=#000000;fontColor=#000000;dashed=1;entryX=0.997;entryY=0.189;entryDx=0;entryDy=0;entryPerimeter=0;" parent="1" target="12" edge="1">
                    <mxGeometry width="160" relative="1" as="geometry">
                        <mxPoint x="-1457" y="147" as="sourcePoint"/>
                        <mxPoint x="-1305" y="141" as="targetPoint"/>
                        <Array as="points">
                            <mxPoint x="-1467" y="147"/>
                        </Array>
                    </mxGeometry>
                </mxCell>
                <mxCell id="H6hMEX80jcX9_PH4wcqr-31" value="&lt;span style=&quot;font-family: Helvetica; font-size: 12px; font-style: normal; font-variant-ligatures: normal; font-variant-caps: normal; font-weight: 400; letter-spacing: normal; orphans: 2; text-align: center; text-indent: 0px; text-transform: none; widows: 2; word-spacing: 0px; -webkit-text-stroke-width: 0px; text-decoration-thickness: initial; text-decoration-style: initial; text-decoration-color: initial; float: none; display: inline !important;&quot;&gt;use&lt;/span&gt;" style="text;whiteSpace=wrap;html=1;fontColor=#000000;" parent="1" vertex="1">
                    <mxGeometry x="-1975" y="116" width="26" height="25" as="geometry"/>
                </mxCell>
                <mxCell id="136" value="" style="edgeStyle=none;html=1;" parent="1" source="H6hMEX80jcX9_PH4wcqr-35" edge="1">
                    <mxGeometry relative="1" as="geometry">
                        <mxPoint x="-189.34545454545423" y="-7" as="targetPoint"/>
                    </mxGeometry>
                </mxCell>
                <mxCell id="H6hMEX80jcX9_PH4wcqr-35" value="Customer" style="swimlane;fontStyle=1;align=center;verticalAlign=top;childLayout=stackLayout;horizontal=1;startSize=26;horizontalStack=0;resizeParent=1;resizeParentMax=0;resizeLast=0;collapsible=1;marginBottom=0;strokeColor=#000000;fontColor=#FFFFFF;" parent="1" vertex="1">
                    <mxGeometry x="-463" y="17" width="230" height="300" as="geometry"/>
                </mxCell>
                <mxCell id="H6hMEX80jcX9_PH4wcqr-36" value="- userName: string&#10;- passsword: string&#10;- ID : string&#10;- balance: int&#10;- email: string&#10;- adress: string" style="text;strokeColor=none;fillColor=none;align=left;verticalAlign=top;spacingLeft=4;spacingRight=4;overflow=hidden;rotatable=0;points=[[0,0.5],[1,0.5]];portConstraint=eastwest;fontColor=#000000;labelBackgroundColor=none;" parent="H6hMEX80jcX9_PH4wcqr-35" vertex="1">
                    <mxGeometry y="26" width="230" height="94" as="geometry"/>
                </mxCell>
                <mxCell id="H6hMEX80jcX9_PH4wcqr-37" value="" style="line;strokeWidth=1;fillColor=none;align=left;verticalAlign=middle;spacingTop=-1;spacingLeft=3;spacingRight=3;rotatable=0;labelPosition=right;points=[];portConstraint=eastwest;strokeColor=inherit;fontColor=#000000;" parent="H6hMEX80jcX9_PH4wcqr-35" vertex="1">
                    <mxGeometry y="120" width="230" height="8" as="geometry"/>
                </mxCell>
                <mxCell id="H6hMEX80jcX9_PH4wcqr-38" value="+ getName( ):string&#10;+ setName(name: string): void&#10;+ getPassword( ): string&#10;+ setPassword(password: string): void&#10;+ getID( ): string&#10;+ getBalance( ): int&#10;+ setBalance(balance: int): void&#10;+ getEmail( ): string&#10;+ setEmail(email: string): void&#10;+ getAddress( ): string&#10;+ setAdress(address: string): void " style="text;strokeColor=none;fillColor=none;align=left;verticalAlign=top;spacingLeft=4;spacingRight=4;overflow=hidden;rotatable=0;points=[[0,0.5],[1,0.5]];portConstraint=eastwest;fontColor=#000000;" parent="H6hMEX80jcX9_PH4wcqr-35" vertex="1">
                    <mxGeometry y="128" width="230" height="172" as="geometry"/>
                </mxCell>
                <mxCell id="H6hMEX80jcX9_PH4wcqr-39" value="Product" style="swimlane;fontStyle=1;align=center;verticalAlign=top;childLayout=stackLayout;horizontal=1;startSize=26;horizontalStack=0;resizeParent=1;resizeParentMax=0;resizeLast=0;collapsible=1;marginBottom=0;strokeColor=#000000;" parent="1" vertex="1">
                    <mxGeometry x="360" y="520" width="220" height="290" as="geometry">
                        <mxRectangle x="470" y="300" width="100" height="30" as="alternateBounds"/>
                    </mxGeometry>
                </mxCell>
                <mxCell id="H6hMEX80jcX9_PH4wcqr-40" value="- serialNum: int&#10;- name: string&#10;- vendor: string&#10;- category: string &#10;- price: int &#10;-amount: int" style="text;strokeColor=none;fillColor=none;align=left;verticalAlign=top;spacingLeft=4;spacingRight=4;overflow=hidden;rotatable=0;points=[[0,0.5],[1,0.5]];portConstraint=eastwest;fontColor=#000000;" parent="H6hMEX80jcX9_PH4wcqr-39" vertex="1">
                    <mxGeometry y="26" width="220" height="94" as="geometry"/>
                </mxCell>
                <mxCell id="H6hMEX80jcX9_PH4wcqr-41" value="" style="line;strokeWidth=1;fillColor=none;align=left;verticalAlign=middle;spacingTop=-1;spacingLeft=3;spacingRight=3;rotatable=0;labelPosition=right;points=[];portConstraint=eastwest;strokeColor=inherit;" parent="H6hMEX80jcX9_PH4wcqr-39" vertex="1">
                    <mxGeometry y="120" width="220" height="8" as="geometry"/>
                </mxCell>
                <mxCell id="H6hMEX80jcX9_PH4wcqr-42" value="+ setName(name: string): void&#10;+ setVendor(vendor: string): void&#10;+ setCategory(category: string): void&#10;+ setPrice(price: int): void&#10;+ getSerialNum(): int&#10;+ getName(): string&#10;+ getVendor(): string&#10;+ getCategory(): string&#10;+ getPrice(): int&#10;+getAmount(): int&#10;+setAmount(amount: int) : void" style="text;strokeColor=none;fillColor=none;align=left;verticalAlign=top;spacingLeft=4;spacingRight=4;overflow=hidden;rotatable=0;points=[[0,0.5],[1,0.5]];portConstraint=eastwest;fontColor=#000000;" parent="H6hMEX80jcX9_PH4wcqr-39" vertex="1">
                    <mxGeometry y="128" width="220" height="162" as="geometry"/>
                </mxCell>
                <mxCell id="H6hMEX80jcX9_PH4wcqr-43" value="SimpleOrder" style="swimlane;fontStyle=1;align=center;verticalAlign=top;childLayout=stackLayout;horizontal=1;startSize=26;horizontalStack=0;resizeParent=1;resizeParentMax=0;resizeLast=0;collapsible=1;marginBottom=0;strokeColor=#000000;fillColor=default;fontColor=#FFFFFF;" parent="1" vertex="1">
                    <mxGeometry x="-258" y="687" width="300" height="353" as="geometry">
                        <mxRectangle x="-254" y="684" width="110" height="30" as="alternateBounds"/>
                    </mxGeometry>
                </mxCell>
                <mxCell id="H6hMEX80jcX9_PH4wcqr-44" value="# ID: String&#10;# prductPrice: double&#10;# shipmentFees: double&#10;# cart: Cart&#10;# shipmentAddress: String&#10;# customerID: String" style="text;strokeColor=none;fillColor=none;align=left;verticalAlign=top;spacingLeft=4;spacingRight=4;overflow=hidden;rotatable=0;points=[[0,0.5],[1,0.5]];portConstraint=eastwest;fontColor=#000000;" parent="H6hMEX80jcX9_PH4wcqr-43" vertex="1">
                    <mxGeometry y="26" width="300" height="104" as="geometry"/>
                </mxCell>
                <mxCell id="H6hMEX80jcX9_PH4wcqr-45" value="+ getID( ) : String&#10;+getProductPrice( ): double&#10;+setProductPrice(productPrice: double) : void&#10;+getShipmentFees(): double&#10;+setShipmentFees(shipmentFess: double) : void&#10;+getCart(): Cart&#10;+setCart(cart: Cart): void&#10;+getShipmentAddress(): String&#10;+setShipmentAddress(shipmentAddress: String): void&#10;+getCustomerID( ): String&#10;+setCustomerID(customerID : String) : void&#10;+placeOrder():void&#10;+ship(ID:string):void&#10;+cancel(ID:string):void&#10;+cancelShipment(ID:string):void" style="text;strokeColor=#000000;fillColor=none;align=left;verticalAlign=top;spacingLeft=4;spacingRight=4;overflow=hidden;rotatable=0;points=[[0,0.5],[1,0.5]];portConstraint=eastwest;fontColor=#000000;" parent="H6hMEX80jcX9_PH4wcqr-43" vertex="1">
                    <mxGeometry y="130" width="300" height="223" as="geometry"/>
                </mxCell>
                <mxCell id="H6hMEX80jcX9_PH4wcqr-46" value="Cart" style="swimlane;fontStyle=1;align=center;verticalAlign=top;childLayout=stackLayout;horizontal=1;startSize=26;horizontalStack=0;resizeParent=1;resizeParentMax=0;resizeLast=0;collapsible=1;marginBottom=0;labelBackgroundColor=none;strokeColor=#000000;fontColor=default;fillColor=default;labelBorderColor=none;" parent="1" vertex="1">
                    <mxGeometry x="370" y="880" width="230" height="140" as="geometry"/>
                </mxCell>
                <mxCell id="H6hMEX80jcX9_PH4wcqr-47" value="- ID: string&#10;- products: List&lt;Product&gt;&#10;" style="text;strokeColor=none;fillColor=none;align=left;verticalAlign=top;spacingLeft=4;spacingRight=4;overflow=hidden;rotatable=0;points=[[0,0.5],[1,0.5]];portConstraint=eastwest;labelBackgroundColor=none;fontColor=#000000;" parent="H6hMEX80jcX9_PH4wcqr-46" vertex="1">
                    <mxGeometry y="26" width="230" height="44" as="geometry"/>
                </mxCell>
                <mxCell id="H6hMEX80jcX9_PH4wcqr-48" value="" style="line;strokeWidth=1;fillColor=none;align=left;verticalAlign=middle;spacingTop=-1;spacingLeft=3;spacingRight=3;rotatable=0;labelPosition=right;points=[];portConstraint=eastwest;strokeColor=inherit;labelBackgroundColor=default;fontColor=#FFFFFF;" parent="H6hMEX80jcX9_PH4wcqr-46" vertex="1">
                    <mxGeometry y="70" width="230" height="8" as="geometry"/>
                </mxCell>
                <object label="+ getID( ): void&#10;+ getProducts( ): List&lt;Product&gt;&#10;+ addProduct(product: Product): void" Get="" id="H6hMEX80jcX9_PH4wcqr-49">
                    <mxCell style="text;strokeColor=none;fillColor=none;align=left;verticalAlign=top;spacingLeft=4;spacingRight=4;overflow=hidden;rotatable=0;points=[[0,0.5],[1,0.5]];portConstraint=eastwest;labelBackgroundColor=none;fontColor=#000000;" parent="H6hMEX80jcX9_PH4wcqr-46" vertex="1">
                        <mxGeometry y="78" width="230" height="62" as="geometry"/>
                    </mxCell>
                </object>
                <mxCell id="H6hMEX80jcX9_PH4wcqr-50" value="" style="endArrow=diamondThin;endFill=1;endSize=24;html=1;dashed=1;labelBackgroundColor=#FFFFFF;strokeColor=#000000;fontColor=#000000;entryX=0.438;entryY=-0.014;entryDx=0;entryDy=0;exitX=0.499;exitY=1;exitDx=0;exitDy=0;exitPerimeter=0;entryPerimeter=0;" parent="1" source="H6hMEX80jcX9_PH4wcqr-42" target="H6hMEX80jcX9_PH4wcqr-46" edge="1">
                    <mxGeometry width="160" relative="1" as="geometry">
                        <mxPoint x="490" y="810" as="sourcePoint"/>
                        <mxPoint x="525" y="860" as="targetPoint"/>
                    </mxGeometry>
                </mxCell>
                <mxCell id="StFQyZ94x38BfXwhMp5b-22" value="" style="edgeStyle=none;html=1;" parent="1" source="H6hMEX80jcX9_PH4wcqr-52" target="H6hMEX80jcX9_PH4wcqr-48" edge="1">
                    <mxGeometry relative="1" as="geometry"/>
                </mxCell>
                <mxCell id="H6hMEX80jcX9_PH4wcqr-52" value="*" style="text;html=1;align=center;verticalAlign=middle;resizable=0;points=[];autosize=1;strokeColor=none;fillColor=none;fontColor=#000000;" parent="1" vertex="1">
                    <mxGeometry x="470" y="805" width="30" height="30" as="geometry"/>
                </mxCell>
                <mxCell id="StFQyZ94x38BfXwhMp5b-23" value="" style="endArrow=diamondThin;endFill=1;endSize=24;html=1;dashed=1;labelBackgroundColor=#FFFFFF;strokeColor=#000000;fontColor=#000000;entryX=1.003;entryY=0.385;entryDx=0;entryDy=0;entryPerimeter=0;" parent="1" target="H6hMEX80jcX9_PH4wcqr-44" edge="1">
                    <mxGeometry width="160" relative="1" as="geometry">
                        <mxPoint x="370" y="947" as="sourcePoint"/>
                        <mxPoint x="60" y="750" as="targetPoint"/>
                        <Array as="points">
                            <mxPoint x="220" y="947"/>
                            <mxPoint x="220" y="840"/>
                            <mxPoint x="220" y="750"/>
                        </Array>
                    </mxGeometry>
                </mxCell>
                <mxCell id="StFQyZ94x38BfXwhMp5b-24" value="CompoundOrder" style="swimlane;fontStyle=1;align=center;verticalAlign=top;childLayout=stackLayout;horizontal=1;startSize=26;horizontalStack=0;resizeParent=1;resizeParentMax=0;resizeLast=0;collapsible=1;marginBottom=0;strokeColor=#000000;fillColor=default;fontColor=#FFFFFF;" parent="1" vertex="1">
                    <mxGeometry x="-832" y="687" width="307" height="133" as="geometry"/>
                </mxCell>
                <mxCell id="StFQyZ94x38BfXwhMp5b-25" value="#orders:Order[]" style="text;strokeColor=none;fillColor=none;align=left;verticalAlign=top;spacingLeft=4;spacingRight=4;overflow=hidden;rotatable=0;points=[[0,0.5],[1,0.5]];portConstraint=eastwest;fontColor=#000000;" parent="StFQyZ94x38BfXwhMp5b-24" vertex="1">
                    <mxGeometry y="26" width="307" height="32" as="geometry"/>
                </mxCell>
                <mxCell id="StFQyZ94x38BfXwhMp5b-26" value="+placeOrder():void&#10;+ship(ID:string):void&#10;+cancel(ID:string):void&#10;+cancelShipment(ID:string):void" style="text;strokeColor=#000000;fillColor=none;align=left;verticalAlign=top;spacingLeft=4;spacingRight=4;overflow=hidden;rotatable=0;points=[[0,0.5],[1,0.5]];portConstraint=eastwest;fontColor=#000000;" parent="StFQyZ94x38BfXwhMp5b-24" vertex="1">
                    <mxGeometry y="58" width="307" height="75" as="geometry"/>
                </mxCell>
                <mxCell id="H6hMEX80jcX9_PH4wcqr-55" value="1" style="text;html=1;align=center;verticalAlign=middle;resizable=0;points=[];autosize=1;strokeColor=none;fillColor=none;fontColor=#000000;" parent="1" vertex="1">
                    <mxGeometry x="340" y="920" width="30" height="30" as="geometry"/>
                </mxCell>
                <mxCell id="StFQyZ94x38BfXwhMp5b-27" value="" style="endArrow=diamondThin;endFill=1;endSize=24;html=1;dashed=1;labelBackgroundColor=#FFFFFF;strokeColor=#000000;fontColor=#000000;" parent="1" edge="1">
                    <mxGeometry width="160" relative="1" as="geometry">
                        <mxPoint x="-562" y="503" as="sourcePoint"/>
                        <mxPoint x="-746" y="686" as="targetPoint"/>
                        <Array as="points">
                            <mxPoint x="-748" y="503"/>
                        </Array>
                    </mxGeometry>
                </mxCell>
                <mxCell id="StFQyZ94x38BfXwhMp5b-28" value="Order" style="swimlane;fontStyle=1;align=center;verticalAlign=top;childLayout=stackLayout;horizontal=1;startSize=26;horizontalStack=0;resizeParent=1;resizeParentMax=0;resizeLast=0;collapsible=1;marginBottom=0;strokeColor=#000000;fillColor=default;fontColor=#FFFFFF;" parent="1" vertex="1">
                    <mxGeometry x="-565" y="458" width="307" height="101" as="geometry"/>
                </mxCell>
                <mxCell id="StFQyZ94x38BfXwhMp5b-30" value="+placeOrder():void&#10;+ship(ID:string):void&#10;+cancel(ID:string):void&#10;+cancelShipment(ID:string):void" style="text;strokeColor=#000000;fillColor=none;align=left;verticalAlign=top;spacingLeft=4;spacingRight=4;overflow=hidden;rotatable=0;points=[[0,0.5],[1,0.5]];portConstraint=eastwest;fontColor=#000000;" parent="StFQyZ94x38BfXwhMp5b-28" vertex="1">
                    <mxGeometry y="26" width="307" height="75" as="geometry"/>
                </mxCell>
                <mxCell id="StFQyZ94x38BfXwhMp5b-33" value="&amp;lt;&amp;lt;interface&amp;gt;&amp;gt;" style="text;html=1;align=center;verticalAlign=middle;resizable=0;points=[];autosize=1;strokeColor=none;fillColor=none;fontColor=#030303;" parent="1" vertex="1">
                    <mxGeometry x="-460" y="432" width="92" height="26" as="geometry"/>
                </mxCell>
                <mxCell id="StFQyZ94x38BfXwhMp5b-39" value="" style="endArrow=block;dashed=1;endFill=0;endSize=12;html=1;strokeColor=#000000;entryX=0.479;entryY=0.991;entryDx=0;entryDy=0;entryPerimeter=0;" parent="1" edge="1">
                    <mxGeometry width="160" relative="1" as="geometry">
                        <mxPoint x="-121" y="683" as="sourcePoint"/>
                        <mxPoint x="-417.9470000000001" y="559.005" as="targetPoint"/>
                        <Array as="points">
                            <mxPoint x="-121" y="624.68"/>
                            <mxPoint x="-418" y="624.68"/>
                        </Array>
                    </mxGeometry>
                </mxCell>
                <mxCell id="StFQyZ94x38BfXwhMp5b-42" value="Message" style="swimlane;fontStyle=1;align=center;verticalAlign=top;childLayout=stackLayout;horizontal=1;startSize=26;horizontalStack=0;resizeParent=1;resizeParentMax=0;resizeLast=0;collapsible=1;marginBottom=0;" parent="1" vertex="1">
                    <mxGeometry x="-652" y="1100" width="310" height="270" as="geometry"/>
                </mxCell>
                <mxCell id="StFQyZ94x38BfXwhMp5b-43" value="# content: String&#10;# message: String&#10;#ID : String&#10;#channel: String&#10;#customerID: String&#10;#language:Language" style="text;strokeColor=#000000;fillColor=none;align=left;verticalAlign=top;spacingLeft=4;spacingRight=4;overflow=hidden;rotatable=0;points=[[0,0.5],[1,0.5]];portConstraint=eastwest;fontColor=#000000;" parent="StFQyZ94x38BfXwhMp5b-42" vertex="1">
                    <mxGeometry y="26" width="310" height="92" as="geometry"/>
                </mxCell>
                <mxCell id="StFQyZ94x38BfXwhMp5b-44" value="+ getContent(): String&#10;+ setContent(content: String) : void&#10;+ getMessage(): String&#10;+ setMessage(message: String) : void&#10;+ sendSMS() : void&#10;+ sendEmail() : void&#10;+ getID() : String&#10;+ getChannel(): String&#10;+ getCustomerID() : String&#10;+ translate():void" style="text;strokeColor=#000000;fillColor=none;align=left;verticalAlign=top;spacingLeft=4;spacingRight=4;overflow=hidden;rotatable=0;points=[[0,0.5],[1,0.5]];portConstraint=eastwest;fontColor=#000000;" parent="StFQyZ94x38BfXwhMp5b-42" vertex="1">
                    <mxGeometry y="118" width="310" height="152" as="geometry"/>
                </mxCell>
                <mxCell id="StFQyZ94x38BfXwhMp5b-45" value="NotificationManager" style="swimlane;fontStyle=1;align=center;verticalAlign=top;childLayout=stackLayout;horizontal=1;startSize=26;horizontalStack=0;resizeParent=1;resizeParentMax=0;resizeLast=0;collapsible=1;marginBottom=0;strokeColor=#000000;fontColor=#FFFFFF;" parent="1" vertex="1">
                    <mxGeometry x="-1128" y="1112" width="350" height="130" as="geometry"/>
                </mxCell>
                <mxCell id="StFQyZ94x38BfXwhMp5b-46" value="# notificationQueue: Queue&lt;Message&gt;" style="text;strokeColor=none;fillColor=none;align=left;verticalAlign=top;spacingLeft=4;spacingRight=4;overflow=hidden;rotatable=0;points=[[0,0.5],[1,0.5]];portConstraint=eastwest;fontColor=#000000;" parent="StFQyZ94x38BfXwhMp5b-45" vertex="1">
                    <mxGeometry y="26" width="350" height="26" as="geometry"/>
                </mxCell>
                <mxCell id="StFQyZ94x38BfXwhMp5b-47" value="" style="line;strokeWidth=1;fillColor=none;align=left;verticalAlign=middle;spacingTop=-1;spacingLeft=3;spacingRight=3;rotatable=0;labelPosition=right;points=[];portConstraint=eastwest;strokeColor=inherit;fontColor=#000000;" parent="StFQyZ94x38BfXwhMp5b-45" vertex="1">
                    <mxGeometry y="52" width="350" height="8" as="geometry"/>
                </mxCell>
                <mxCell id="StFQyZ94x38BfXwhMp5b-48" value="+ insert(message : Message): void&#10;+delete(): void&#10;+list(): Queue&lt;Message&gt;" style="text;strokeColor=none;fillColor=none;align=left;verticalAlign=top;spacingLeft=4;spacingRight=4;overflow=hidden;rotatable=0;points=[[0,0.5],[1,0.5]];portConstraint=eastwest;fontColor=#000000;" parent="StFQyZ94x38BfXwhMp5b-45" vertex="1">
                    <mxGeometry y="60" width="350" height="70" as="geometry"/>
                </mxCell>
                <mxCell id="StFQyZ94x38BfXwhMp5b-49" value="" style="endArrow=diamondThin;endFill=1;endSize=24;html=1;dashed=1;labelBackgroundColor=#FFFFFF;strokeColor=#000000;fontColor=#000000;" parent="1" edge="1">
                    <mxGeometry width="160" relative="1" as="geometry">
                        <mxPoint x="-651" y="1159" as="sourcePoint"/>
                        <mxPoint x="-781" y="1159" as="targetPoint"/>
                        <Array as="points"/>
                    </mxGeometry>
                </mxCell>
                <mxCell id="StFQyZ94x38BfXwhMp5b-50" value="" style="endArrow=open;endFill=1;endSize=12;html=1;labelBackgroundColor=#FFFFFF;strokeColor=#000000;fontColor=#000000;dashed=1;exitX=0.25;exitY=0;exitDx=0;exitDy=0;edgeStyle=orthogonalEdgeStyle;entryX=0.5;entryY=0;entryDx=0;entryDy=0;" parent="1" source="StFQyZ94x38BfXwhMp5b-45" target="13" edge="1">
                    <mxGeometry width="160" relative="1" as="geometry">
                        <mxPoint x="-1113" y="1035" as="sourcePoint"/>
                        <mxPoint x="-2600" y="1192" as="targetPoint"/>
                        <Array as="points">
                            <mxPoint x="-1040" y="991"/>
                            <mxPoint x="-2603" y="991"/>
                            <mxPoint x="-2603" y="1094"/>
                        </Array>
                    </mxGeometry>
                </mxCell>
                <mxCell id="StFQyZ94x38BfXwhMp5b-52" value="*" style="text;html=1;align=center;verticalAlign=middle;resizable=0;points=[];autosize=1;strokeColor=none;fillColor=none;fontColor=#030303;" parent="1" vertex="1">
                    <mxGeometry x="-591" y="472" width="23" height="26" as="geometry"/>
                </mxCell>
                <mxCell id="StFQyZ94x38BfXwhMp5b-55" value="*" style="text;html=1;align=center;verticalAlign=middle;resizable=0;points=[];autosize=1;strokeColor=none;fillColor=none;fontColor=#030303;" parent="1" vertex="1">
                    <mxGeometry x="-671" y="1138" width="23" height="26" as="geometry"/>
                </mxCell>
                <mxCell id="StFQyZ94x38BfXwhMp5b-56" value="Template1" style="swimlane;fontStyle=1;align=center;verticalAlign=top;childLayout=stackLayout;horizontal=1;startSize=26;horizontalStack=0;resizeParent=1;resizeParentMax=0;resizeLast=0;collapsible=1;marginBottom=0;strokeColor=#000000;fillColor=default;fontColor=#FFFFFF;" parent="1" vertex="1">
                    <mxGeometry x="-837" y="1452" width="307" height="101" as="geometry"/>
                </mxCell>
                <mxCell id="StFQyZ94x38BfXwhMp5b-58" value="+setContent():void" style="text;strokeColor=#000000;fillColor=none;align=left;verticalAlign=top;spacingLeft=4;spacingRight=4;overflow=hidden;rotatable=0;points=[[0,0.5],[1,0.5]];portConstraint=eastwest;fontColor=#000000;" parent="StFQyZ94x38BfXwhMp5b-56" vertex="1">
                    <mxGeometry y="26" width="307" height="75" as="geometry"/>
                </mxCell>
                <mxCell id="StFQyZ94x38BfXwhMp5b-59" value="Template2" style="swimlane;fontStyle=1;align=center;verticalAlign=top;childLayout=stackLayout;horizontal=1;startSize=26;horizontalStack=0;resizeParent=1;resizeParentMax=0;resizeLast=0;collapsible=1;marginBottom=0;strokeColor=#000000;fillColor=default;fontColor=#FFFFFF;" parent="1" vertex="1">
                    <mxGeometry x="-465" y="1448" width="307" height="101" as="geometry"/>
                </mxCell>
                <mxCell id="StFQyZ94x38BfXwhMp5b-60" value="+setContent():void" style="text;strokeColor=#000000;fillColor=none;align=left;verticalAlign=top;spacingLeft=4;spacingRight=4;overflow=hidden;rotatable=0;points=[[0,0.5],[1,0.5]];portConstraint=eastwest;fontColor=#000000;" parent="StFQyZ94x38BfXwhMp5b-59" vertex="1">
                    <mxGeometry y="26" width="307" height="75" as="geometry"/>
                </mxCell>
                <mxCell id="27" value="Extends" style="endArrow=block;endSize=16;endFill=0;html=1;strokeColor=#000000;exitX=0.61;exitY=0.007;exitDx=0;exitDy=0;exitPerimeter=0;entryX=0.454;entryY=0.999;entryDx=0;entryDy=0;entryPerimeter=0;" parent="1" source="StFQyZ94x38BfXwhMp5b-56" target="StFQyZ94x38BfXwhMp5b-44" edge="1">
                    <mxGeometry x="-0.04" y="8" width="160" relative="1" as="geometry">
                        <mxPoint x="-611" y="1418" as="sourcePoint"/>
                        <mxPoint x="-485" y="1374" as="targetPoint"/>
                        <Array as="points">
                            <mxPoint x="-650" y="1419"/>
                            <mxPoint x="-510" y="1420"/>
                            <mxPoint x="-510" y="1390"/>
                        </Array>
                        <mxPoint as="offset"/>
                    </mxGeometry>
                </mxCell>
                <mxCell id="StFQyZ94x38BfXwhMp5b-61" value="Extends" style="endArrow=block;endSize=16;endFill=0;html=1;strokeColor=#000000;" parent="1" edge="1">
                    <mxGeometry x="-0.1225" y="-9" width="160" relative="1" as="geometry">
                        <mxPoint x="-318" y="1447" as="sourcePoint"/>
                        <mxPoint x="-485" y="1370" as="targetPoint"/>
                        <Array as="points">
                            <mxPoint x="-318" y="1423"/>
                            <mxPoint x="-485" y="1422.84"/>
                        </Array>
                        <mxPoint as="offset"/>
                    </mxGeometry>
                </mxCell>
                <mxCell id="77" value="" style="edgeStyle=none;html=1;" parent="1" source="H6hMEX80jcX9_PH4wcqr-58" target="H6hMEX80jcX9_PH4wcqr-65" edge="1">
                    <mxGeometry relative="1" as="geometry"/>
                </mxCell>
                <mxCell id="H6hMEX80jcX9_PH4wcqr-58" value="StockManager" style="swimlane;fontStyle=1;align=center;verticalAlign=top;childLayout=stackLayout;horizontal=1;startSize=26;horizontalStack=0;resizeParent=1;resizeParentMax=0;resizeLast=0;collapsible=1;marginBottom=0;labelBackgroundColor=none;fontColor=#FFFFFF;" parent="1" vertex="1">
                    <mxGeometry x="-1491" y="410" width="370" height="82" as="geometry"/>
                </mxCell>
                <mxCell id="H6hMEX80jcX9_PH4wcqr-61" value="+ addAmount(serialNum: String, amount: int) : void&#10;+ decrementAmount(SerialNum:String, amount: int): void" style="text;strokeColor=#000000;fillColor=none;align=left;verticalAlign=top;spacingLeft=4;spacingRight=4;overflow=hidden;rotatable=0;points=[[0,0.5],[1,0.5]];portConstraint=eastwest;labelBackgroundColor=none;fontColor=#000000;" parent="H6hMEX80jcX9_PH4wcqr-58" vertex="1">
                    <mxGeometry y="26" width="370" height="48" as="geometry"/>
                </mxCell>
                <mxCell id="H6hMEX80jcX9_PH4wcqr-60" value="" style="line;strokeWidth=1;fillColor=none;align=left;verticalAlign=middle;spacingTop=-1;spacingLeft=3;spacingRight=3;rotatable=0;labelPosition=right;points=[];portConstraint=eastwest;strokeColor=inherit;labelBackgroundColor=none;fontColor=#000000;" parent="H6hMEX80jcX9_PH4wcqr-58" vertex="1">
                    <mxGeometry y="74" width="370" height="8" as="geometry"/>
                </mxCell>
                <mxCell id="StFQyZ94x38BfXwhMp5b-62" value="Language" style="swimlane;fontStyle=1;align=center;verticalAlign=top;childLayout=stackLayout;horizontal=1;startSize=26;horizontalStack=0;resizeParent=1;resizeParentMax=0;resizeLast=0;collapsible=1;marginBottom=0;strokeColor=#000000;fillColor=default;fontColor=#FFFFFF;" parent="1" vertex="1">
                    <mxGeometry x="-101" y="1121" width="307" height="98" as="geometry"/>
                </mxCell>
                <mxCell id="StFQyZ94x38BfXwhMp5b-63" value="+translate(message:string):string" style="text;strokeColor=#000000;fillColor=none;align=left;verticalAlign=top;spacingLeft=4;spacingRight=4;overflow=hidden;rotatable=0;points=[[0,0.5],[1,0.5]];portConstraint=eastwest;fontColor=#000000;" parent="StFQyZ94x38BfXwhMp5b-62" vertex="1">
                    <mxGeometry y="26" width="307" height="72" as="geometry"/>
                </mxCell>
                <mxCell id="StFQyZ94x38BfXwhMp5b-64" value="Spanish" style="swimlane;fontStyle=1;align=center;verticalAlign=top;childLayout=stackLayout;horizontal=1;startSize=26;horizontalStack=0;resizeParent=1;resizeParentMax=0;resizeLast=0;collapsible=1;marginBottom=0;strokeColor=#000000;fillColor=default;fontColor=#FFFFFF;" parent="1" vertex="1">
                    <mxGeometry x="-237" y="1296" width="307" height="98" as="geometry"/>
                </mxCell>
                <mxCell id="StFQyZ94x38BfXwhMp5b-65" value="+ translate(message:string):string" style="text;strokeColor=#000000;fillColor=none;align=left;verticalAlign=top;spacingLeft=4;spacingRight=4;overflow=hidden;rotatable=0;points=[[0,0.5],[1,0.5]];portConstraint=eastwest;fontColor=#000000;" parent="StFQyZ94x38BfXwhMp5b-64" vertex="1">
                    <mxGeometry y="26" width="307" height="72" as="geometry"/>
                </mxCell>
                <mxCell id="StFQyZ94x38BfXwhMp5b-66" value="English" style="swimlane;fontStyle=1;align=center;verticalAlign=top;childLayout=stackLayout;horizontal=1;startSize=26;horizontalStack=0;resizeParent=1;resizeParentMax=0;resizeLast=0;collapsible=1;marginBottom=0;strokeColor=#000000;fillColor=default;fontColor=#FFFFFF;" parent="1" vertex="1">
                    <mxGeometry x="91" y="1293" width="307" height="98" as="geometry"/>
                </mxCell>
                <mxCell id="StFQyZ94x38BfXwhMp5b-67" value="+ translate(message:string):string" style="text;strokeColor=#000000;fillColor=none;align=left;verticalAlign=top;spacingLeft=4;spacingRight=4;overflow=hidden;rotatable=0;points=[[0,0.5],[1,0.5]];portConstraint=eastwest;fontColor=#000000;" parent="StFQyZ94x38BfXwhMp5b-66" vertex="1">
                    <mxGeometry y="26" width="307" height="72" as="geometry"/>
                </mxCell>
                <mxCell id="H6hMEX80jcX9_PH4wcqr-62" value="" style="endArrow=open;endFill=1;endSize=12;html=1;labelBackgroundColor=#FFFFFF;strokeColor=#000000;fontColor=#000000;dashed=1;entryX=0.993;entryY=-0.022;entryDx=0;entryDy=0;entryPerimeter=0;exitX=-0.009;exitY=0.274;exitDx=0;exitDy=0;exitPerimeter=0;" parent="1" source="H6hMEX80jcX9_PH4wcqr-61" target="18" edge="1">
                    <mxGeometry width="160" relative="1" as="geometry">
                        <mxPoint x="-1494" y="450" as="sourcePoint"/>
                        <mxPoint x="-1240" y="445" as="targetPoint"/>
                        <Array as="points"/>
                    </mxGeometry>
                </mxCell>
                <mxCell id="H6hMEX80jcX9_PH4wcqr-65" value="use" style="text;html=1;align=center;verticalAlign=middle;resizable=0;points=[];autosize=1;strokeColor=none;fillColor=none;fontColor=#000000;" parent="1" vertex="1">
                    <mxGeometry x="-1978" y="424" width="40" height="30" as="geometry"/>
                </mxCell>
                <mxCell id="H6hMEX80jcX9_PH4wcqr-66" value="" style="endArrow=open;endFill=1;endSize=12;html=1;labelBackgroundColor=#FFFFFF;strokeColor=#000000;fontColor=#000000;dashed=1;edgeStyle=orthogonalEdgeStyle;exitX=1.005;exitY=0.187;exitDx=0;exitDy=0;exitPerimeter=0;entryX=0.5;entryY=0;entryDx=0;entryDy=0;" parent="1" source="H6hMEX80jcX9_PH4wcqr-58" target="H6hMEX80jcX9_PH4wcqr-39" edge="1">
                    <mxGeometry width="160" relative="1" as="geometry">
                        <mxPoint x="-852.3199999999999" y="330" as="sourcePoint"/>
                        <mxPoint x="400" y="400" as="targetPoint"/>
                    </mxGeometry>
                </mxCell>
                <mxCell id="StFQyZ94x38BfXwhMp5b-68" value="&amp;lt;&amp;lt;interface&amp;gt;&amp;gt;" style="text;html=1;align=center;verticalAlign=middle;resizable=0;points=[];autosize=1;strokeColor=none;fillColor=none;fontColor=#030303;" parent="1" vertex="1">
                    <mxGeometry x="15" y="1100" width="92" height="26" as="geometry"/>
                </mxCell>
                <mxCell id="StFQyZ94x38BfXwhMp5b-71" value="" style="endArrow=block;dashed=1;endFill=0;endSize=12;html=1;strokeColor=#000000;entryX=0.479;entryY=0.991;entryDx=0;entryDy=0;entryPerimeter=0;exitX=0.48;exitY=0.019;exitDx=0;exitDy=0;exitPerimeter=0;" parent="1" source="StFQyZ94x38BfXwhMp5b-66" edge="1">
                    <mxGeometry width="160" relative="1" as="geometry">
                        <mxPoint x="360" y="1291" as="sourcePoint"/>
                        <mxPoint x="63.052999999999884" y="1219.005" as="targetPoint"/>
                        <Array as="points">
                            <mxPoint x="239" y="1284"/>
                            <mxPoint x="239" y="1268"/>
                            <mxPoint x="63" y="1268"/>
                        </Array>
                    </mxGeometry>
                </mxCell>
                <mxCell id="StFQyZ94x38BfXwhMp5b-72" value="" style="endArrow=block;dashed=1;endFill=0;endSize=12;html=1;strokeColor=#000000;entryX=0.479;entryY=0.991;entryDx=0;entryDy=0;entryPerimeter=0;exitX=0.5;exitY=0;exitDx=0;exitDy=0;" parent="1" source="StFQyZ94x38BfXwhMp5b-64" edge="1">
                    <mxGeometry width="160" relative="1" as="geometry">
                        <mxPoint x="238.36000000000013" y="1296.0020000000002" as="sourcePoint"/>
                        <mxPoint x="63.052999999999884" y="1220.1450000000002" as="targetPoint"/>
                        <Array as="points">
                            <mxPoint x="-83" y="1269"/>
                            <mxPoint x="63" y="1269.14"/>
                        </Array>
                    </mxGeometry>
                </mxCell>
                <mxCell id="H6hMEX80jcX9_PH4wcqr-67" value="use" style="text;html=1;align=center;verticalAlign=middle;resizable=0;points=[];autosize=1;strokeColor=none;fillColor=none;fontColor=#000000;" parent="1" vertex="1">
                    <mxGeometry x="-300.5" y="390" width="40" height="30" as="geometry"/>
                </mxCell>
                <mxCell id="StFQyZ94x38BfXwhMp5b-74" value="Implement" style="text;html=1;align=center;verticalAlign=middle;resizable=0;points=[];autosize=1;strokeColor=none;fillColor=none;fontColor=#000000;" parent="1" vertex="1">
                    <mxGeometry x="-378" y="597" width="80" height="30" as="geometry"/>
                </mxCell>
                <mxCell id="StFQyZ94x38BfXwhMp5b-76" value="Implement" style="text;html=1;align=center;verticalAlign=middle;resizable=0;points=[];autosize=1;strokeColor=none;fillColor=none;fontColor=#000000;" parent="1" vertex="1">
                    <mxGeometry x="-48" y="1252" width="80" height="30" as="geometry"/>
                </mxCell>
                <mxCell id="H6hMEX80jcX9_PH4wcqr-69" value="Implement" style="text;html=1;align=center;verticalAlign=middle;resizable=0;points=[];autosize=1;strokeColor=none;fillColor=none;fontColor=#000000;" parent="1" vertex="1">
                    <mxGeometry x="-565" y="597" width="80" height="30" as="geometry"/>
                </mxCell>
                <mxCell id="H6hMEX80jcX9_PH4wcqr-72" value="Implement" style="text;html=1;align=center;verticalAlign=middle;resizable=0;points=[];autosize=1;strokeColor=none;fillColor=none;fontColor=#000000;" parent="1" vertex="1">
                    <mxGeometry x="91" y="1252" width="80" height="30" as="geometry"/>
                </mxCell>
                <mxCell id="H6hMEX80jcX9_PH4wcqr-70" value="" style="endArrow=none;dashed=1;endFill=0;endSize=12;html=1;strokeColor=#000000;entryX=0.483;entryY=1.018;entryDx=0;entryDy=0;entryPerimeter=0;" parent="1" target="StFQyZ94x38BfXwhMp5b-30" edge="1">
                    <mxGeometry width="160" relative="1" as="geometry">
                        <mxPoint x="-683" y="684.9999999999998" as="sourcePoint"/>
                        <mxPoint x="-520" y="650" as="targetPoint"/>
                        <Array as="points">
                            <mxPoint x="-683" y="624"/>
                            <mxPoint x="-418" y="624"/>
                        </Array>
                    </mxGeometry>
                </mxCell>
                <mxCell id="H6hMEX80jcX9_PH4wcqr-74" value="use" style="text;html=1;align=center;verticalAlign=middle;resizable=0;points=[];autosize=1;strokeColor=none;fillColor=none;fontColor=#000000;" parent="1" vertex="1">
                    <mxGeometry x="-1786" y="969" width="40" height="30" as="geometry"/>
                </mxCell>
                <mxCell id="34" value="Component" style="swimlane;fontStyle=1;align=center;verticalAlign=top;childLayout=stackLayout;horizontal=1;startSize=26;horizontalStack=0;resizeParent=1;resizeParentMax=0;resizeLast=0;collapsible=1;marginBottom=0;strokeColor=#000000;fontColor=#FFFFFF;" parent="1" vertex="1">
                    <mxGeometry x="-1331" y="1277" width="217" height="130" as="geometry"/>
                </mxCell>
                <mxCell id="35" value="#messga:Message" style="text;strokeColor=none;fillColor=none;align=left;verticalAlign=top;spacingLeft=4;spacingRight=4;overflow=hidden;rotatable=0;points=[[0,0.5],[1,0.5]];portConstraint=eastwest;fontColor=#000000;" parent="34" vertex="1">
                    <mxGeometry y="26" width="217" height="26" as="geometry"/>
                </mxCell>
                <mxCell id="36" value="" style="line;strokeWidth=1;fillColor=none;align=left;verticalAlign=middle;spacingTop=-1;spacingLeft=3;spacingRight=3;rotatable=0;labelPosition=right;points=[];portConstraint=eastwest;strokeColor=inherit;fontColor=#000000;" parent="34" vertex="1">
                    <mxGeometry y="52" width="217" height="8" as="geometry"/>
                </mxCell>
                <mxCell id="37" value="+send():viod" style="text;strokeColor=none;fillColor=none;align=left;verticalAlign=top;spacingLeft=4;spacingRight=4;overflow=hidden;rotatable=0;points=[[0,0.5],[1,0.5]];portConstraint=eastwest;fontColor=#000000;" parent="34" vertex="1">
                    <mxGeometry y="60" width="217" height="70" as="geometry"/>
                </mxCell>
                <mxCell id="38" value="&amp;lt;&amp;lt;abstract&amp;gt;&amp;gt;" style="text;html=1;align=center;verticalAlign=middle;resizable=0;points=[];autosize=1;strokeColor=none;fillColor=none;fontColor=#030303;" parent="1" vertex="1">
                    <mxGeometry x="-1278" y="1256" width="89" height="26" as="geometry"/>
                </mxCell>
                <mxCell id="40" value="ConcreatComponent" style="swimlane;fontStyle=1;align=center;verticalAlign=top;childLayout=stackLayout;horizontal=1;startSize=26;horizontalStack=0;resizeParent=1;resizeParentMax=0;resizeLast=0;collapsible=1;marginBottom=0;strokeColor=#000000;fontColor=#FFFFFF;" parent="1" vertex="1">
                    <mxGeometry x="-1506" y="1466" width="217" height="96" as="geometry"/>
                </mxCell>
                <mxCell id="43" value="+send():viod" style="text;strokeColor=none;fillColor=none;align=left;verticalAlign=top;spacingLeft=4;spacingRight=4;overflow=hidden;rotatable=0;points=[[0,0.5],[1,0.5]];portConstraint=eastwest;fontColor=#000000;" parent="40" vertex="1">
                    <mxGeometry y="26" width="217" height="70" as="geometry"/>
                </mxCell>
                <mxCell id="54" value="DecoratorComponent" style="swimlane;fontStyle=1;align=center;verticalAlign=top;childLayout=stackLayout;horizontal=1;startSize=26;horizontalStack=0;resizeParent=1;resizeParentMax=0;resizeLast=0;collapsible=1;marginBottom=0;strokeColor=#000000;fontColor=#FFFFFF;" parent="1" vertex="1">
                    <mxGeometry x="-1208" y="1466" width="253" height="130" as="geometry"/>
                </mxCell>
                <mxCell id="55" value="#wrapper:Component" style="text;strokeColor=none;fillColor=none;align=left;verticalAlign=top;spacingLeft=4;spacingRight=4;overflow=hidden;rotatable=0;points=[[0,0.5],[1,0.5]];portConstraint=eastwest;fontColor=#000000;" parent="54" vertex="1">
                    <mxGeometry y="26" width="253" height="26" as="geometry"/>
                </mxCell>
                <mxCell id="56" value="" style="line;strokeWidth=1;fillColor=none;align=left;verticalAlign=middle;spacingTop=-1;spacingLeft=3;spacingRight=3;rotatable=0;labelPosition=right;points=[];portConstraint=eastwest;strokeColor=inherit;fontColor=#000000;" parent="54" vertex="1">
                    <mxGeometry y="52" width="253" height="8" as="geometry"/>
                </mxCell>
                <mxCell id="57" value="+DecoratorComponent(wrapper:Component)&#10;+send():viod" style="text;strokeColor=none;fillColor=none;align=left;verticalAlign=top;spacingLeft=4;spacingRight=4;overflow=hidden;rotatable=0;points=[[0,0.5],[1,0.5]];portConstraint=eastwest;fontColor=#000000;" parent="54" vertex="1">
                    <mxGeometry y="60" width="253" height="70" as="geometry"/>
                </mxCell>
                <mxCell id="58" value="&amp;lt;&amp;lt;abstract&amp;gt;&amp;gt;" style="text;html=1;align=center;verticalAlign=middle;resizable=0;points=[];autosize=1;strokeColor=none;fillColor=none;fontColor=#030303;" parent="1" vertex="1">
                    <mxGeometry x="-1137" y="1443" width="89" height="26" as="geometry"/>
                </mxCell>
                <mxCell id="59" value="SendByEmail" style="swimlane;fontStyle=1;align=center;verticalAlign=top;childLayout=stackLayout;horizontal=1;startSize=26;horizontalStack=0;resizeParent=1;resizeParentMax=0;resizeLast=0;collapsible=1;marginBottom=0;strokeColor=#000000;fontColor=#FFFFFF;" parent="1" vertex="1">
                    <mxGeometry x="-1321" y="1668" width="253" height="104" as="geometry"/>
                </mxCell>
                <mxCell id="61" value="" style="line;strokeWidth=1;fillColor=none;align=left;verticalAlign=middle;spacingTop=-1;spacingLeft=3;spacingRight=3;rotatable=0;labelPosition=right;points=[];portConstraint=eastwest;strokeColor=inherit;fontColor=#000000;" parent="59" vertex="1">
                    <mxGeometry y="26" width="253" height="8" as="geometry"/>
                </mxCell>
                <mxCell id="62" value="+send():viod&#10;+extra():viod" style="text;strokeColor=none;fillColor=none;align=left;verticalAlign=top;spacingLeft=4;spacingRight=4;overflow=hidden;rotatable=0;points=[[0,0.5],[1,0.5]];portConstraint=eastwest;fontColor=#000000;" parent="59" vertex="1">
                    <mxGeometry y="34" width="253" height="70" as="geometry"/>
                </mxCell>
                <mxCell id="63" value="SendBySms" style="swimlane;fontStyle=1;align=center;verticalAlign=top;childLayout=stackLayout;horizontal=1;startSize=26;horizontalStack=0;resizeParent=1;resizeParentMax=0;resizeLast=0;collapsible=1;marginBottom=0;strokeColor=#000000;fontColor=#FFFFFF;" parent="1" vertex="1">
                    <mxGeometry x="-1031" y="1668" width="253" height="104" as="geometry"/>
                </mxCell>
                <mxCell id="64" value="" style="line;strokeWidth=1;fillColor=none;align=left;verticalAlign=middle;spacingTop=-1;spacingLeft=3;spacingRight=3;rotatable=0;labelPosition=right;points=[];portConstraint=eastwest;strokeColor=inherit;fontColor=#000000;" parent="63" vertex="1">
                    <mxGeometry y="26" width="253" height="8" as="geometry"/>
                </mxCell>
                <mxCell id="65" value="+send():viod&#10;+extra():viod" style="text;strokeColor=none;fillColor=none;align=left;verticalAlign=top;spacingLeft=4;spacingRight=4;overflow=hidden;rotatable=0;points=[[0,0.5],[1,0.5]];portConstraint=eastwest;fontColor=#000000;" parent="63" vertex="1">
                    <mxGeometry y="34" width="253" height="70" as="geometry"/>
                </mxCell>
                <mxCell id="66" value="Extends" style="endArrow=block;endSize=16;endFill=0;html=1;strokeColor=#000000;entryX=0.528;entryY=1.014;entryDx=0;entryDy=0;entryPerimeter=0;" parent="1" target="57" edge="1">
                    <mxGeometry x="-0.04" y="8" width="160" relative="1" as="geometry">
                        <mxPoint x="-1190" y="1667" as="sourcePoint"/>
                        <mxPoint x="-1077" y="1594" as="targetPoint"/>
                        <Array as="points">
                            <mxPoint x="-1190" y="1644"/>
                            <mxPoint x="-1075" y="1644.15"/>
                            <mxPoint x="-1075" y="1614.15"/>
                        </Array>
                        <mxPoint as="offset"/>
                    </mxGeometry>
                </mxCell>
                <mxCell id="67" value="Extends" style="endArrow=block;endSize=16;endFill=0;html=1;strokeColor=#000000;exitX=0.425;exitY=0.003;exitDx=0;exitDy=0;exitPerimeter=0;" parent="1" source="63" edge="1">
                    <mxGeometry x="-0.1225" y="-9" width="160" relative="1" as="geometry">
                        <mxPoint x="-922" y="1670" as="sourcePoint"/>
                        <mxPoint x="-1058" y="1596" as="targetPoint"/>
                        <Array as="points">
                            <mxPoint x="-924" y="1666"/>
                            <mxPoint x="-924" y="1649"/>
                            <mxPoint x="-1058" y="1648.84"/>
                        </Array>
                        <mxPoint as="offset"/>
                    </mxGeometry>
                </mxCell>
                <mxCell id="68" value="Extends" style="endArrow=block;endSize=16;endFill=0;html=1;strokeColor=#000000;" parent="1" edge="1">
                    <mxGeometry x="-0.04" y="8" width="160" relative="1" as="geometry">
                        <mxPoint x="-1326" y="1462" as="sourcePoint"/>
                        <mxPoint x="-1240" y="1408" as="targetPoint"/>
                        <Array as="points">
                            <mxPoint x="-1326" y="1444"/>
                            <mxPoint x="-1310" y="1443"/>
                            <mxPoint x="-1240" y="1444"/>
                            <mxPoint x="-1240" y="1427.15"/>
                        </Array>
                        <mxPoint as="offset"/>
                    </mxGeometry>
                </mxCell>
                <mxCell id="70" value="" style="endArrow=diamondThin;endFill=1;endSize=24;html=1;dashed=1;labelBackgroundColor=#FFFFFF;strokeColor=#000000;fontColor=#000000;exitX=-0.009;exitY=0.604;exitDx=0;exitDy=0;exitPerimeter=0;" parent="1" source="StFQyZ94x38BfXwhMp5b-44" edge="1">
                    <mxGeometry width="160" relative="1" as="geometry">
                        <mxPoint x="-984" y="1309" as="sourcePoint"/>
                        <mxPoint x="-1114" y="1309" as="targetPoint"/>
                        <Array as="points"/>
                    </mxGeometry>
                </mxCell>
                <mxCell id="72" value="1" style="text;html=1;align=center;verticalAlign=middle;resizable=0;points=[];autosize=1;strokeColor=none;fillColor=none;fontColor=#030303;" parent="1" vertex="1">
                    <mxGeometry x="-687" y="1282" width="25" height="26" as="geometry"/>
                </mxCell>
                <mxCell id="75" value="Extends" style="endArrow=block;endSize=16;endFill=0;html=1;strokeColor=#000000;" parent="1" target="37" edge="1">
                    <mxGeometry x="-0.1225" y="-9" width="160" relative="1" as="geometry">
                        <mxPoint x="-1145" y="1466" as="sourcePoint"/>
                        <mxPoint x="-1312" y="1389" as="targetPoint"/>
                        <Array as="points">
                            <mxPoint x="-1145" y="1447"/>
                            <mxPoint x="-1221" y="1444"/>
                        </Array>
                        <mxPoint as="offset"/>
                    </mxGeometry>
                </mxCell>
                <mxCell id="78" value="" style="endArrow=open;endFill=1;endSize=12;html=1;labelBackgroundColor=#FFFFFF;strokeColor=#000000;fontColor=#000000;dashed=1;exitX=0.002;exitY=0.525;exitDx=0;exitDy=0;exitPerimeter=0;entryX=0.75;entryY=0;entryDx=0;entryDy=0;" parent="1" source="StFQyZ94x38BfXwhMp5b-47" target="34" edge="1">
                    <mxGeometry width="160" relative="1" as="geometry">
                        <mxPoint x="-1133" y="1168.06" as="sourcePoint"/>
                        <mxPoint x="-1243" y="1168.06" as="targetPoint"/>
                        <Array as="points">
                            <mxPoint x="-1168" y="1168"/>
                        </Array>
                    </mxGeometry>
                </mxCell>
                <mxCell id="79" value="use" style="text;html=1;align=center;verticalAlign=middle;resizable=0;points=[];autosize=1;strokeColor=none;fillColor=none;fontColor=#000000;" parent="1" vertex="1">
                    <mxGeometry x="-1177" y="1134" width="40" height="30" as="geometry"/>
                </mxCell>
                <mxCell id="107" value="" style="endArrow=diamondThin;endFill=0;endSize=24;html=1;strokeColor=#000000;fontColor=#000000;fillColor=none;entryX=0.998;entryY=0.544;entryDx=0;entryDy=0;entryPerimeter=0;" parent="1" target="StFQyZ94x38BfXwhMp5b-43" edge="1">
                    <mxGeometry width="160" relative="1" as="geometry">
                        <mxPoint x="-99" y="1174" as="sourcePoint"/>
                        <mxPoint x="-151" y="1188" as="targetPoint"/>
                    </mxGeometry>
                </mxCell>
                <mxCell id="108" value="1" style="text;html=1;align=center;verticalAlign=middle;resizable=0;points=[];autosize=1;strokeColor=none;fillColor=none;fontColor=#030303;" parent="1" vertex="1">
                    <mxGeometry x="-135" y="1148" width="25" height="26" as="geometry"/>
                </mxCell>
                <mxCell id="148" style="edgeStyle=orthogonalEdgeStyle;html=1;exitX=0.5;exitY=0;exitDx=0;exitDy=0;" parent="1" source="109" edge="1">
                    <mxGeometry relative="1" as="geometry">
                        <mxPoint x="-1946.6524832589284" y="-54.28571428571422" as="targetPoint"/>
                    </mxGeometry>
                </mxCell>
                <mxCell id="109" value="&lt;span style=&quot;font-family: Helvetica; font-size: 12px; font-style: normal; font-variant-ligatures: normal; font-variant-caps: normal; font-weight: 400; letter-spacing: normal; orphans: 2; text-align: center; text-indent: 0px; text-transform: none; widows: 2; word-spacing: 0px; -webkit-text-stroke-width: 0px; text-decoration-thickness: initial; text-decoration-style: initial; text-decoration-color: initial; float: none; display: inline !important;&quot;&gt;use&lt;/span&gt;" style="text;whiteSpace=wrap;html=1;fontColor=#000000;" parent="1" vertex="1">
                    <mxGeometry x="-1512" y="-52" width="38" height="25" as="geometry"/>
                </mxCell>
                <mxCell id="132" style="edgeStyle=none;html=1;" parent="1" edge="1">
                    <mxGeometry relative="1" as="geometry">
                        <mxPoint x="-795.8106043198532" y="-323.366968491498" as="targetPoint"/>
                        <mxPoint x="-814.8960829120488" y="-416.0000000000002" as="sourcePoint"/>
                    </mxGeometry>
                </mxCell>
                <mxCell id="134" value="" style="endArrow=none;endFill=1;endSize=12;html=1;labelBackgroundColor=#FFFFFF;strokeColor=#000000;fontColor=#000000;dashed=1;exitX=0.602;exitY=-0.012;exitDx=0;exitDy=0;exitPerimeter=0;edgeStyle=orthogonalEdgeStyle;entryX=0.5;entryY=0;entryDx=0;entryDy=0;" parent="1" source="10" target="H6hMEX80jcX9_PH4wcqr-35" edge="1">
                    <mxGeometry width="160" relative="1" as="geometry">
                        <mxPoint x="-2570.42" y="71.55999999999995" as="sourcePoint"/>
                        <mxPoint x="-186" y="72" as="targetPoint"/>
                        <Array as="points">
                            <mxPoint x="-2570" y="75"/>
                            <mxPoint x="-2574" y="75"/>
                            <mxPoint x="-2574" y="-26"/>
                            <mxPoint x="-345" y="-26"/>
                            <mxPoint x="-345" y="29"/>
                            <mxPoint x="-348" y="29"/>
                        </Array>
                    </mxGeometry>
                </mxCell>
                <mxCell id="139" value="OrderLog" style="swimlane;fontStyle=1;align=center;verticalAlign=top;childLayout=stackLayout;horizontal=1;startSize=26;horizontalStack=0;resizeParent=1;resizeParentMax=0;resizeLast=0;collapsible=1;marginBottom=0;strokeColor=#000000;fontColor=#FFFFFF;" parent="1" vertex="1">
                    <mxGeometry x="-2750" y="723" width="290" height="120" as="geometry"/>
                </mxCell>
                <mxCell id="140" value="- orders: List&lt;Order&gt;" style="text;strokeColor=none;fillColor=none;align=left;verticalAlign=top;spacingLeft=4;spacingRight=4;overflow=hidden;rotatable=0;points=[[0,0.5],[1,0.5]];portConstraint=eastwest;fontColor=#000000;" parent="139" vertex="1">
                    <mxGeometry y="26" width="290" height="34" as="geometry"/>
                </mxCell>
                <mxCell id="141" value="+ create(order: Order): void&#10;+ read(ID: string): Order&#10;+ delete(string ID): void" style="text;strokeColor=#181616;fillColor=none;align=left;verticalAlign=top;spacingLeft=4;spacingRight=4;overflow=hidden;rotatable=0;points=[[0,0.5],[1,0.5]];portConstraint=eastwest;fontColor=#000000;" parent="139" vertex="1">
                    <mxGeometry y="60" width="290" height="60" as="geometry"/>
                </mxCell>
                <mxCell id="143" value="NotificationStatistics" style="swimlane;fontStyle=1;align=center;verticalAlign=top;childLayout=stackLayout;horizontal=1;startSize=26;horizontalStack=0;resizeParent=1;resizeParentMax=0;resizeLast=0;collapsible=1;marginBottom=0;strokeColor=#000000;fontColor=#FFFFFF;" parent="1" vertex="1">
                    <mxGeometry x="-2011" y="1405" width="290" height="86" as="geometry"/>
                </mxCell>
                <mxCell id="145" value="+ mostNotifiedEmail( ): string&#10;+ mostNotifiedPhoneNumber( ): string&#10;+ mostSentNotificationTemplate( ): string" style="text;strokeColor=#181616;fillColor=none;align=left;verticalAlign=top;spacingLeft=4;spacingRight=4;overflow=hidden;rotatable=0;points=[[0,0.5],[1,0.5]];portConstraint=eastwest;fontColor=#000000;" parent="143" vertex="1">
                    <mxGeometry y="26" width="290" height="60" as="geometry"/>
                </mxCell>
                <mxCell id="146" value="" style="endArrow=open;endFill=1;endSize=12;html=1;labelBackgroundColor=#FFFFFF;strokeColor=#000000;fontColor=#000000;dashed=1;entryX=0.424;entryY=0.013;entryDx=0;entryDy=0;edgeStyle=orthogonalEdgeStyle;entryPerimeter=0;" parent="1" source="15" target="143" edge="1">
                    <mxGeometry width="160" relative="1" as="geometry">
                        <mxPoint x="-1846.0500000000002" y="1164.1999999999998" as="sourcePoint"/>
                        <mxPoint x="-1887" y="1273" as="targetPoint"/>
                    </mxGeometry>
                </mxCell>
                <mxCell id="147" value="use" style="text;html=1;align=center;verticalAlign=middle;resizable=0;points=[];autosize=1;strokeColor=none;fillColor=none;fontColor=#000000;" parent="1" vertex="1">
                    <mxGeometry x="-2175" y="1168" width="40" height="30" as="geometry"/>
                </mxCell>
                <mxCell id="152" style="edgeStyle=orthogonalEdgeStyle;html=1;exitX=0.25;exitY=0;exitDx=0;exitDy=0;entryX=0.25;entryY=1;entryDx=0;entryDy=0;" parent="1" source="109" target="109" edge="1">
                    <mxGeometry relative="1" as="geometry"/>
                </mxCell>
                <mxCell id="154" value="&lt;font style=&quot;font-size: 18px;&quot;&gt;Services&lt;/font&gt;" style="text;html=1;align=center;verticalAlign=middle;resizable=0;points=[];autosize=1;strokeColor=none;fillColor=none;fontStyle=1;fontColor=#000000;fontSize=16;" parent="1" vertex="1">
                    <mxGeometry x="-2171" y="-135" width="92" height="34" as="geometry"/>
                </mxCell>
                <mxCell id="158" style="edgeStyle=none;html=1;exitX=0.25;exitY=1;exitDx=0;exitDy=0;exitPerimeter=0;fontSize=16;fontColor=#000000;" edge="1" parent="1" source="156">
                    <mxGeometry relative="1" as="geometry">
                        <mxPoint x="-548.890869140625" y="-379.3035888671875" as="targetPoint"/>
                    </mxGeometry>
                </mxCell>
                <mxCell id="156" value="" style="shape=folder;fontStyle=1;tabWidth=184;tabHeight=31;tabPosition=left;html=1;boundedLbl=1;fontSize=16;fontColor=#000000;fillColor=none;strokeColor=#000000;" vertex="1" parent="1">
                    <mxGeometry x="-661" y="-76" width="672" height="412" as="geometry"/>
                </mxCell>
                <mxCell id="159" value="&lt;b&gt;Authentication&lt;/b&gt;" style="text;html=1;align=center;verticalAlign=middle;resizable=0;points=[];autosize=1;strokeColor=none;fillColor=none;fontSize=16;fontColor=#000000;" vertex="1" parent="1">
                    <mxGeometry x="-1763" y="34" width="130" height="31" as="geometry"/>
                </mxCell>
                <mxCell id="161" value="&lt;b&gt;Users&lt;/b&gt;" style="text;html=1;align=center;verticalAlign=middle;resizable=0;points=[];autosize=1;strokeColor=none;fillColor=none;fontSize=16;fontColor=#000000;" vertex="1" parent="1">
                    <mxGeometry x="-661" y="-74" width="62" height="31" as="geometry"/>
                </mxCell>
                <mxCell id="164" value="&lt;b&gt;Order&lt;/b&gt;" style="text;html=1;align=center;verticalAlign=middle;resizable=0;points=[];autosize=1;strokeColor=none;fillColor=none;fontSize=16;fontColor=#000000;" vertex="1" parent="1">
                    <mxGeometry x="-883" y="361" width="62" height="31" as="geometry"/>
                </mxCell>
                <mxCell id="167" value="&lt;font style=&quot;font-size: 16px;&quot; color=&quot;#000000&quot;&gt;&lt;b style=&quot;&quot;&gt;NotificationsServices&lt;/b&gt;&lt;/font&gt;" style="text;html=1;align=center;verticalAlign=middle;resizable=0;points=[];autosize=1;strokeColor=none;fillColor=none;" vertex="1" parent="1">
                    <mxGeometry x="-2039" y="1035" width="181" height="31" as="geometry"/>
                </mxCell>
                <mxCell id="170" value="" style="shape=folder;fontStyle=1;tabWidth=235;tabHeight=44;tabPosition=left;html=1;boundedLbl=1;fontSize=16;fontColor=#000000;fillColor=none;strokeColor=#000000;" vertex="1" parent="1">
                    <mxGeometry x="-2037" y="1026" width="2507" height="784" as="geometry"/>
                </mxCell>
                <mxCell id="169" value="&lt;b&gt;&lt;font style=&quot;font-size: 18px;&quot;&gt;Model&lt;/font&gt;&lt;/b&gt;" style="text;html=1;align=center;verticalAlign=middle;resizable=0;points=[];autosize=1;strokeColor=none;fillColor=none;fontSize=16;fontColor=#000000;" vertex="1" parent="1">
                    <mxGeometry x="-2952" y="-49" width="70" height="34" as="geometry"/>
                </mxCell>
                <mxCell id="171" value="" style="shape=folder;fontStyle=1;tabWidth=130;tabHeight=38;tabPosition=left;html=1;boundedLbl=1;strokeColor=#000000;fontSize=14;fontColor=#000000;fillColor=none;" vertex="1" parent="1">
                    <mxGeometry x="-2822" y="17" width="465" height="223" as="geometry"/>
                </mxCell>
                <mxCell id="172" value="UsersModel" style="text;html=1;align=center;verticalAlign=middle;resizable=0;points=[];autosize=1;strokeColor=none;fillColor=none;fontSize=16;fontColor=#000000;fontStyle=1" vertex="1" parent="1">
                    <mxGeometry x="-2820" y="24" width="109" height="31" as="geometry"/>
                </mxCell>
                <mxCell id="173" value="" style="shape=folder;fontStyle=1;tabWidth=130;tabHeight=38;tabPosition=left;html=1;boundedLbl=1;strokeColor=#000000;fontSize=14;fontColor=#000000;fillColor=none;" vertex="1" parent="1">
                    <mxGeometry x="-2829" y="333" width="447" height="212" as="geometry"/>
                </mxCell>
                <mxCell id="174" value="&lt;b&gt;Stock&lt;/b&gt;" style="text;html=1;align=center;verticalAlign=middle;resizable=0;points=[];autosize=1;strokeColor=none;fillColor=none;fontSize=16;fontColor=#000000;" vertex="1" parent="1">
                    <mxGeometry x="-2826.5" y="336" width="62" height="31" as="geometry"/>
                </mxCell>
                <mxCell id="175" value="" style="shape=folder;fontStyle=1;tabWidth=133;tabHeight=32;tabPosition=left;html=1;boundedLbl=1;strokeColor=#000000;fontSize=16;fontColor=#000000;fillColor=none;" vertex="1" parent="1">
                    <mxGeometry x="-2820" y="1004" width="414" height="246" as="geometry"/>
                </mxCell>
                <mxCell id="176" value="&lt;b&gt;MessageModel&lt;/b&gt;" style="text;html=1;align=center;verticalAlign=middle;resizable=0;points=[];autosize=1;strokeColor=none;fillColor=none;fontSize=16;fontColor=#000000;" vertex="1" parent="1">
                    <mxGeometry x="-2820" y="1004" width="132" height="31" as="geometry"/>
                </mxCell>
                <mxCell id="179" value="" style="endArrow=open;endFill=1;endSize=12;html=1;labelBackgroundColor=#FFFFFF;strokeColor=#000000;fontColor=#000000;dashed=1;exitX=-0.01;exitY=0.688;exitDx=0;exitDy=0;edgeStyle=orthogonalEdgeStyle;exitPerimeter=0;" edge="1" parent="1" source="StFQyZ94x38BfXwhMp5b-30">
                    <mxGeometry width="160" relative="1" as="geometry">
                        <mxPoint x="-2368.0000000000005" y="772.5299999999999" as="sourcePoint"/>
                        <mxPoint x="-2504" y="685" as="targetPoint"/>
                        <Array as="points">
                            <mxPoint x="-716" y="536"/>
                            <mxPoint x="-716" y="634"/>
                            <mxPoint x="-2504" y="634"/>
                        </Array>
                    </mxGeometry>
                </mxCell>
                <mxCell id="180" value="use" style="text;html=1;align=center;verticalAlign=middle;resizable=0;points=[];autosize=1;strokeColor=none;fillColor=none;fontSize=16;fontColor=#000000;" vertex="1" parent="1">
                    <mxGeometry x="-2009" y="609" width="44" height="31" as="geometry"/>
                </mxCell>
                <mxCell id="181" value="" style="shape=folder;fontStyle=1;tabWidth=130;tabHeight=38;tabPosition=left;html=1;boundedLbl=1;strokeColor=#000000;fontSize=14;fontColor=#000000;fillColor=none;" vertex="1" parent="1">
                    <mxGeometry x="-2824" y="644" width="414" height="236" as="geometry"/>
                </mxCell>
                <mxCell id="182" value="OrderModel" style="text;html=1;align=center;verticalAlign=middle;resizable=0;points=[];autosize=1;strokeColor=none;fillColor=none;fontSize=16;fontColor=#000000;fontStyle=1" vertex="1" parent="1">
                    <mxGeometry x="-2824" y="647" width="108" height="31" as="geometry"/>
                </mxCell>
            </root>
        </mxGraphModel>
    </diagram>
</mxfile>